<svg xmlns="http://www.w3.org/2000/svg" xmlns:xlink="http://www.w3.org/1999/xlink" width="711" height="1117" viewBox="0 0 711 1117">
  <defs>
    <clipPath id="clip-path">
      <rect id="Rectangle_18" data-name="Rectangle 18" width="842.227" height="1155.428" transform="translate(0 0.002)" fill="none"/>
    </clipPath>
    <clipPath id="clip-path-2">
      <rect id="Rectangle_2" data-name="Rectangle 2" width="22.684" height="23.06" transform="translate(183.906 45.37)" fill="none"/>
    </clipPath>
    <clipPath id="clip-path-3">
      <path id="Path_1" data-name="Path 1" d="M205.582,61.457a11.3,11.3,0,1,1-5.668-15.142,11.433,11.433,0,0,1,5.668,15.142" fill="none"/>
    </clipPath>
    <linearGradient id="linear-gradient" x1="-4.831" y1="30.542" x2="-4.804" y2="30.542" gradientUnits="objectBoundingBox">
      <stop offset="0" stop-color="#00126f"/>
      <stop offset="0.483" stop-color="#003da3"/>
      <stop offset="1" stop-color="#006c9c"/>
    </linearGradient>
    <clipPath id="clip-path-4">
      <rect id="Rectangle_4" data-name="Rectangle 4" width="31.08" height="31.59" transform="translate(629.018 357.864)" fill="none"/>
    </clipPath>
    <clipPath id="clip-path-5">
      <path id="Path_2" data-name="Path 2" d="M658.718,379.9a15.479,15.479,0,1,1-7.767-20.746,15.667,15.667,0,0,1,7.767,20.746" fill="none"/>
    </clipPath>
    <linearGradient id="linear-gradient-2" x1="-13.179" y1="17.185" x2="-13.157" y2="17.185" xlink:href="#linear-gradient"/>
    <clipPath id="clip-path-6">
      <rect id="Rectangle_6" data-name="Rectangle 6" width="31.08" height="31.59" transform="translate(82.018 716.864)" fill="none"/>
    </clipPath>
    <clipPath id="clip-path-7">
      <path id="Path_3" data-name="Path 3" d="M111.718,738.9a15.479,15.479,0,1,1-7.767-20.746,15.667,15.667,0,0,1,7.767,20.746" fill="none"/>
    </clipPath>
    <linearGradient id="linear-gradient-3" x1="-1.57" y1="9.523" x2="-1.549" y2="9.523" xlink:href="#linear-gradient"/>
    <clipPath id="clip-path-8">
      <rect id="Rectangle_8" data-name="Rectangle 8" width="18.302" height="18.603" transform="translate(713.571 648.049)" fill="none"/>
    </clipPath>
    <clipPath id="clip-path-9">
      <path id="Path_4" data-name="Path 4" d="M731.061,661.025a9.115,9.115,0,1,1-4.574-12.217,9.225,9.225,0,0,1,4.574,12.217" fill="none"/>
    </clipPath>
    <linearGradient id="linear-gradient-4" x1="-24.335" y1="17.567" x2="-24.301" y2="17.567" xlink:href="#linear-gradient"/>
    <clipPath id="clip-path-10">
      <rect id="Rectangle_10" data-name="Rectangle 10" width="174.673" height="86.879" transform="translate(658.682 278.866)" fill="none"/>
    </clipPath>
    <clipPath id="clip-path-11">
      <path id="Path_5" data-name="Path 5" d="M688.237,294.635c38.314-18.9,67.573-24.124,109.82,2.989q5.76,3.677,11.85,8.191a77.969,77.969,0,0,1,10.844,9.627c17.316,18.54,16.118,37.818.519,39.412-17.843,1.806-30.554-10.846-46.923-16.5a43.881,43.881,0,0,0-24.073-1.69,64.245,64.245,0,0,0-15.623,5.527c-16.986,8.4-29.13,21.869-43.469,23.4a25.228,25.228,0,0,1-10.624-1.131c-7.064-2.291-13.515-7.848-17.54-15.106-8.7-15.659-6.213-39.2,25.219-54.725" fill="none"/>
    </clipPath>
    <linearGradient id="linear-gradient-5" x1="-3.16" y1="6.232" x2="-3.155" y2="6.232" xlink:href="#linear-gradient"/>
    <clipPath id="clip-path-12">
      <rect id="Rectangle_12" data-name="Rectangle 12" width="151.428" height="96.83" transform="translate(28.958 5.93)" fill="none"/>
    </clipPath>
    <clipPath id="clip-path-13">
      <path id="Path_6" data-name="Path 6" d="M43.09,41.994C68.842,13.7,91.52-.24,135.615,8.53q6,1.179,12.56,2.948a69.889,69.889,0,0,1,12.192,4.474c20.5,9.786,25.817,26.248,13.336,32.685-14.283,7.347-29.021.962-44.517,1.61a39.287,39.287,0,0,0-20.621,6.473,57.51,57.51,0,0,0-11.214,9.721C85.941,79,80.228,94.209,68.778,100.185a22.609,22.609,0,0,1-9.226,2.535c-6.639.4-13.836-2.117-19.568-6.85C27.606,85.665,21.971,65.23,43.09,41.994" fill="none"/>
    </clipPath>
    <linearGradient id="linear-gradient-6" x1="-0.134" y1="11.181" x2="-0.128" y2="11.181" xlink:href="#linear-gradient"/>
    <clipPath id="clip-path-14">
      <rect id="Rectangle_13" data-name="Rectangle 13" width="115.773" height="71.28" transform="translate(674.289 653.15)" fill="none"/>
    </clipPath>
    <clipPath id="clip-path-15">
      <path id="Path_8" data-name="Path 8" d="M778.65,704.74c-20.174,18.78-37.7,26.48-71,12.586q-4.536-1.879-9.476-4.32a63.24,63.24,0,0,1-9.163-5.491c-15.362-11.055-19.04-25.127-9.42-28.372,11.008-3.7,22.064,3.725,33.848,5.607a25.783,25.783,0,0,0,15.8-2.013,34.512,34.512,0,0,0,8.728-6.085c8.939-8.34,13.608-19.692,22.435-22.726a14.974,14.974,0,0,1,7.063-.61c5.051.705,10.463,3.849,14.713,8.546,9.181,10.132,13.017,27.452-3.528,42.878" fill="none"/>
    </clipPath>
    <linearGradient id="linear-gradient-7" x1="-3.324" y1="3.124" x2="-3.319" y2="3.124" xlink:href="#linear-gradient"/>
    <clipPath id="clip-path-16">
      <rect id="Rectangle_15" data-name="Rectangle 15" width="172.31" height="145.43" transform="translate(669.917)" fill="none"/>
    </clipPath>
    <clipPath id="clip-path-17">
      <path id="Path_9" data-name="Path 9" d="M695.586,2.152c18.071,9.731,22.007,29.876,33.9,45.731a50.207,50.207,0,0,0,21.735,17.04A73.45,73.45,0,0,0,769.571,69.7c21.487,2.933,41.638-2.049,56.215,5.691a28.883,28.883,0,0,1,9.346,7.885c5.226,6.7,7.777,16.106,6.937,25.568-1.8,20.421-19.247,41.139-59,35.7-48.436-6.659-79.523-20.467-102.18-73.261q-3.1-7.179-5.981-15.364A89.28,89.28,0,0,1,670.8,39.844c-4.524-28.679,8.974-46.184,24.783-37.692" fill="none"/>
    </clipPath>
    <linearGradient id="linear-gradient-8" x1="-3.265" y1="5.562" x2="-3.26" y2="5.562" xlink:href="#linear-gradient"/>
    <clipPath id="clip-path-18">
      <rect id="Rectangle_17" data-name="Rectangle 17" width="113.773" height="198.472" transform="translate(0 516.317)" fill="none"/>
    </clipPath>
    <clipPath id="clip-path-19">
      <path id="Path_10" data-name="Path 10" d="M46.693,704.248c-6.559-19.448,4.318-36.853,6.455-56.557A50.219,50.219,0,0,0,48.9,620.4a73.448,73.448,0,0,0-10.146-16.022c-13.7-16.813-31.821-26.931-37.188-42.539A28.884,28.884,0,0,1,.122,549.7c.757-8.465,5.313-17.078,12.386-23.418,15.255-13.7,42.151-16.918,67.484,14.2,30.845,37.935,44.131,69.248,24.642,123.292q-2.636,7.363-6.12,15.309a89.244,89.244,0,0,1-7.979,14.551c-16.274,24.043-38.088,27.618-43.842,10.619" fill="none"/>
    </clipPath>
    <linearGradient id="linear-gradient-9" x1="0.211" y1="2.698" x2="0.216" y2="2.698" xlink:href="#linear-gradient"/>
    <clipPath id="clip-Artboard_2">
      <rect width="711" height="1117"/>
    </clipPath>
  </defs>
  <g id="Artboard_2" data-name="Artboard – 2" clip-path="url(#clip-Artboard_2)">
    <rect width="711" height="1117" fill="#fff"/>
    <g id="Group_61" data-name="Group 61" transform="translate(-65.614 -38.43)">
      <g id="Group_62" data-name="Group 62">
        <text id="_" data-name=" " transform="translate(133.691 687.264)" fill="#5e5e5e" font-size="12" font-family="SegoeUI, Segoe UI"><tspan x="0" y="0"> </tspan></text>
        <text id="_2" data-name=" " transform="translate(133.691 716.065)" fill="#5e5e5e" font-size="12" font-family="SegoeUI, Segoe UI"><tspan x="0" y="0"> </tspan></text>
        <g id="Group_47" data-name="Group 47">
          <g id="Group_46" data-name="Group 46" clip-path="url(#clip-path)">
            <g id="Group_5" data-name="Group 5" opacity="0.2">
              <g id="Group_4" data-name="Group 4">
                <g id="Group_3" data-name="Group 3" clip-path="url(#clip-path-2)">
                  <g id="Group_2" data-name="Group 2">
                    <g id="Group_1" data-name="Group 1" clip-path="url(#clip-path-3)">
                      <rect id="Rectangle_1" data-name="Rectangle 1" width="36.622" height="36.566" transform="translate(169.511 59.585) rotate(-50.906)" fill="url(#linear-gradient)"/>
                    </g>
                  </g>
                </g>
              </g>
            </g>
            <g id="Group_10" data-name="Group 10" opacity="0.2">
              <g id="Group_9" data-name="Group 9">
                <g id="Group_8" data-name="Group 8" clip-path="url(#clip-path-4)">
                  <g id="Group_7" data-name="Group 7">
                    <g id="Group_6" data-name="Group 6" clip-path="url(#clip-path-5)">
                      <rect id="Rectangle_3" data-name="Rectangle 3" width="47.121" height="46.855" transform="matrix(0.403, -0.915, 0.915, 0.403, 613.619, 385.774)" fill="url(#linear-gradient-2)"/>
                    </g>
                  </g>
                </g>
              </g>
            </g>
            <g id="Group_15" data-name="Group 15" opacity="0.24">
              <g id="Group_14" data-name="Group 14">
                <g id="Group_13" data-name="Group 13" clip-path="url(#clip-path-6)">
                  <g id="Group_12" data-name="Group 12">
                    <g id="Group_11" data-name="Group 11" clip-path="url(#clip-path-7)">
                      <rect id="Rectangle_5" data-name="Rectangle 5" width="47.122" height="46.855" transform="translate(66.619 744.774) rotate(-66.221)" fill="url(#linear-gradient-3)"/>
                    </g>
                  </g>
                </g>
              </g>
            </g>
            <g id="Group_20" data-name="Group 20" opacity="0.2">
              <g id="Group_19" data-name="Group 19">
                <g id="Group_18" data-name="Group 18" clip-path="url(#clip-path-8)">
                  <g id="Group_17" data-name="Group 17">
                    <g id="Group_16" data-name="Group 16" clip-path="url(#clip-path-9)">
                      <rect id="Rectangle_7" data-name="Rectangle 7" width="29.101" height="29.184" transform="translate(702.497 653.406) rotate(-34.046)" fill="url(#linear-gradient-4)"/>
                    </g>
                  </g>
                </g>
              </g>
            </g>
            <g id="Group_25" data-name="Group 25" opacity="0.2">
              <g id="Group_24" data-name="Group 24">
                <g id="Group_23" data-name="Group 23" clip-path="url(#clip-path-10)">
                  <g id="Group_22" data-name="Group 22">
                    <g id="Group_21" data-name="Group 21" clip-path="url(#clip-path-11)">
                      <rect id="Rectangle_9" data-name="Rectangle 9" width="203.89" height="146.056" transform="translate(627.068 279.056) rotate(-17.409)" fill="url(#linear-gradient-5)"/>
                    </g>
                  </g>
                </g>
              </g>
            </g>
            <g id="Group_30" data-name="Group 30" opacity="0.2">
              <g id="Group_29" data-name="Group 29">
                <g id="Group_28" data-name="Group 28" clip-path="url(#clip-path-12)">
                  <g id="Group_27" data-name="Group 27">
                    <g id="Group_26" data-name="Group 26" clip-path="url(#clip-path-13)">
                      <rect id="Rectangle_11" data-name="Rectangle 11" width="164.213" height="103.363" transform="translate(21.971 -0.24)" fill="url(#linear-gradient-6)"/>
                    </g>
                  </g>
                </g>
              </g>
            </g>
            <g id="Group_35" data-name="Group 35" opacity="0.2">
              <g id="Group_34" data-name="Group 34">
                <g id="Group_33" data-name="Group 33" clip-path="url(#clip-path-14)">
                  <g id="Group_32" data-name="Group 32">
                    <g id="Group_31" data-name="Group 31" clip-path="url(#clip-path-15)">
                      <path id="Path_7" data-name="Path 7" d="M696.384,780.4,636.792,669.46l131.987-65.687,59.592,110.936Z" fill="url(#linear-gradient-7)"/>
                    </g>
                  </g>
                </g>
              </g>
            </g>
            <g id="Group_40" data-name="Group 40" opacity="0.2">
              <g id="Group_39" data-name="Group 39">
                <g id="Group_38" data-name="Group 38" clip-path="url(#clip-path-16)">
                  <g id="Group_37" data-name="Group 37">
                    <g id="Group_36" data-name="Group 36" clip-path="url(#clip-path-17)">
                      <rect id="Rectangle_14" data-name="Rectangle 14" width="200.429" height="214.054" transform="translate(623.316 137.121) rotate(-73.328)" fill="url(#linear-gradient-8)"/>
                    </g>
                  </g>
                </g>
              </g>
            </g>
            <g id="Group_45" data-name="Group 45" opacity="0.24">
              <g id="Group_44" data-name="Group 44">
                <g id="Group_43" data-name="Group 43" clip-path="url(#clip-path-18)">
                  <g id="Group_42" data-name="Group 42">
                    <g id="Group_41" data-name="Group 41" clip-path="url(#clip-path-19)">
                      <rect id="Rectangle_16" data-name="Rectangle 16" width="214.238" height="245.699" transform="translate(-92.513 563.201) rotate(-30.27)" fill="url(#linear-gradient-9)"/>
                    </g>
                  </g>
                </g>
              </g>
            </g>
          </g>
        </g>
        <g id="Group_55" data-name="Group 55">
          <g id="Group_54" data-name="Group 54" clip-path="url(#clip-path)">
            <path id="Path_19" data-name="Path 19" d="M144.938,969.077s1.215.012,2.678.012h9.243l0-3.331h-8.1v-3.234H155.8v-3.292h-7.047V956.4h7.874v-3.331h-9.01c-1.5,0-1.9.009-2.693,0,0,.951,0,1.556.017,2.751v10.512c0,1.328,0,2.741,0,2.741" fill="#fff"/>
            <path id="Path_20" data-name="Path 20" d="M163.031,961.618a8.009,8.009,0,0,0-4,1.252,3.237,3.237,0,0,0-1.406,2.811,3.464,3.464,0,0,0,1.059,2.618,4.711,4.711,0,0,0,3.331,1.059,5.591,5.591,0,0,0,3.735-1.155v.885h3.6v-7.932a3.479,3.479,0,0,0-1.771-3.465,8.365,8.365,0,0,0-3.562-.674,7.4,7.4,0,0,0-4.332,1.1c-.808.578-1.154,1.292-1.5,2.965l3.558-.038c.289-.944.944-1.348,2.176-1.348,1.271,0,1.829.424,1.829,1.348v.443c-1.386.038-1.964.057-2.715.134m2.715,2.869a1.938,1.938,0,0,1-.693,1.482,3.563,3.563,0,0,1-2.176.732c-1,0-1.578-.4-1.578-1.1a1.423,1.423,0,0,1,1.116-1.271,11.432,11.432,0,0,1,3.331-.385Z" fill="#fff"/>
            <path id="Path_21" data-name="Path 21" d="M176.2,966.6c-1.29,0-1.945-.443-2.137-1.444l-3.812-.027a3.568,3.568,0,0,0,.77,2.376c.924,1.271,2.638,1.925,5.064,1.925a6.373,6.373,0,0,0,4.562-1.4,3.527,3.527,0,0,0,.982-2.561,3.021,3.021,0,0,0-1.848-2.946,11.85,11.85,0,0,0-3.157-.924c-1.906-.423-2.311-.616-2.311-1.136,0-.5.616-.827,1.617-.827,1.04,0,1.521.346,1.618,1.135l3.814-.012a5.422,5.422,0,0,0-1.35-2.587,5.907,5.907,0,0,0-4.1-1.232c-3.215,0-5.16,1.406-5.16,3.716a3.65,3.65,0,0,0,.482,1.829,3.693,3.693,0,0,0,1.925,1.367,22.676,22.676,0,0,0,2.849.693,5.012,5.012,0,0,1,1.579.443.788.788,0,0,1,.424.693c0,.6-.655.924-1.81.924" fill="#fff"/>
            <path id="Path_22" data-name="Path 22" d="M185.911,968.049l-.4.828c-.988,1.909-1.455,1.834-2.186,1.841-.509.005-12.814-.016-13.985-.016l.021,2.807c1.213,0,13.629.021,14.564-.024,2.192-.1,3.581-.828,4.351-2.637l4.856-11c.674-1.579.635-1.487,1.09-2.5h-3.657s-.453,1.232-.992,2.56l-1.713,4.371-1.772-4.448c-.4-1.039-.906-2.483-.906-2.483h-3.911s.293.632,1.121,2.557Z" fill="#fff"/>
            <path id="Path_23" data-name="Path 23" d="M147.016,973.5a4.146,4.146,0,0,0-.544-.023h-1.039c-.251,0-.343,0-.485.01a3.027,3.027,0,0,0,.026-.482v-1.8a3.458,3.458,0,0,0-.026-.481c.135.006.227.009.485.009h1.052a3.94,3.94,0,0,0,.491-.023v.617a4.141,4.141,0,0,0-.491-.023h-.858v.485h.713a3.924,3.924,0,0,0,.5-.023v.61a4.192,4.192,0,0,0-.5-.023h-.713v.554h.851a4.364,4.364,0,0,0,.538-.023Z" fill="#fff"/>
            <path id="Path_24" data-name="Path 24" d="M148.552,972.118a1.84,1.84,0,0,0,.32.023h.653a1.84,1.84,0,0,0,.32-.023v.627a1.923,1.923,0,0,0-.32-.023h-.653a1.923,1.923,0,0,0-.32.023Z" fill="#fff"/>
            <path id="Path_25" data-name="Path 25" d="M152.655,973.477a2.613,2.613,0,0,0-.142-.488l-.3-.878c0-.016-.1-.323-.112-.349-.037-.119-.037-.119-.053-.165.02.208.033.478.033.653v.716a3.516,3.516,0,0,0,.026.511h-.65a3.6,3.6,0,0,0,.027-.511v-1.719a4.4,4.4,0,0,0-.027-.514h.871a2.453,2.453,0,0,0,.126.465l.494,1.421.492-1.421a2.284,2.284,0,0,0,.122-.465h.874a3.768,3.768,0,0,0-.027.514v1.719a3.239,3.239,0,0,0,.027.511h-.65a3.57,3.57,0,0,0,.026-.511v-.719c0-.08.01-.327.017-.429.01-.175.01-.175.013-.224-.072.257-.105.376-.148.494l-.32.9a2.876,2.876,0,0,0-.142.485Z" fill="#fff"/>
            <path id="Path_26" data-name="Path 26" d="M157.952,972.092a1.314,1.314,0,0,1-1.333,1.448,1.437,1.437,0,1,1,1.333-1.448m-.686.007c0-.534-.244-.858-.643-.858s-.65.327-.65.858.247.871.65.871.643-.33.643-.871" fill="#fff"/>
            <path id="Path_27" data-name="Path 27" d="M160.386,972.082a4.471,4.471,0,0,1,.238.393c-.014-.152-.02-.3-.02-.489v-.752a3.548,3.548,0,0,0-.027-.5h.7a3.557,3.557,0,0,0-.026.5v1.752a3.936,3.936,0,0,0,.026.491h-.723a3.585,3.585,0,0,0-.247-.419l-.61-.92a4.023,4.023,0,0,1-.238-.406,4.594,4.594,0,0,1,.024.492v.739a3.589,3.589,0,0,0,.026.514h-.7a3.351,3.351,0,0,0,.027-.518v-1.735a3.64,3.64,0,0,0-.027-.491h.716a2.221,2.221,0,0,0,.234.412Z" fill="#fff"/>
            <path id="Path_28" data-name="Path 28" d="M164.288,973.5a4.146,4.146,0,0,0-.544-.023h-1.039c-.251,0-.343,0-.485.01a3.027,3.027,0,0,0,.026-.482v-1.8a3.458,3.458,0,0,0-.026-.481c.135.006.227.009.485.009h1.052a3.94,3.94,0,0,0,.491-.023v.617a4.141,4.141,0,0,0-.491-.023H162.9v.485h.713a3.923,3.923,0,0,0,.495-.023v.61a4.192,4.192,0,0,0-.495-.023H162.9v.554h.851a4.363,4.363,0,0,0,.538-.023Z" fill="#fff"/>
            <path id="Path_29" data-name="Path 29" d="M166.659,972.989a4.2,4.2,0,0,0,.026.488h-.719a4.229,4.229,0,0,0,.027-.488v-.61l-.759-1.247c-.059-.1-.132-.211-.264-.4h.835a1.555,1.555,0,0,0,.155.346l.366.67.366-.667a1.493,1.493,0,0,0,.152-.349h.834c-.1.138-.221.326-.264.4l-.755,1.247Z" fill="#fff"/>
          </g>
        </g>
      </g>
    </g>
  </g>
</svg>
